<svg xmlns="http://www.w3.org/2000/svg" viewBox="0 0 900 1050"><rect width="900" height="1050" fill="#f7f7f7"/><g stroke="#555b61" stroke-width="18" fill="none" stroke-linecap="round" stroke-linejoin="round"><rect x="120" y="250" width="620" height="560" rx="8"/><path d="M145 510h570M145 800h570"/><path d="M710 190v650M710 190q0-45 45-45h25q45 0 45 45v650"/></g><g fill="#f6b800" stroke="#d89e00" stroke-width="5"><rect x="155" y="275" width="165" height="210" rx="10"/><rect x="340" y="275" width="165" height="210" rx="10"/><rect x="525" y="275" width="165" height="210" rx="10"/><rect x="155" y="565" width="165" height="210" rx="10"/><rect x="340" y="565" width="165" height="210" rx="10"/><rect x="525" y="565" width="165" height="210" rx="10"/></g><g fill="#ffd52a"><rect x="168" y="290" width="139" height="167" rx="6"/><rect x="353" y="290" width="139" height="167" rx="6"/><rect x="538" y="290" width="139" height="167" rx="6"/><rect x="168" y="580" width="139" height="167" rx="6"/><rect x="353" y="580" width="139" height="167" rx="6"/><rect x="538" y="580" width="139" height="167" rx="6"/></g><g font-family="Arial,sans-serif" text-anchor="middle" fill="#172033"><text x="430" y="210" font-size="28" font-weight="700">CARRO CON TÓTEMS</text></g><g fill="#fff" stroke="#222" stroke-width="2"><rect x="210" y="385" width="54" height="54" rx="4"/><rect x="395" y="385" width="54" height="54" rx="4"/><rect x="580" y="385" width="54" height="54" rx="4"/><rect x="210" y="675" width="54" height="54" rx="4"/><rect x="395" y="675" width="54" height="54" rx="4"/><rect x="580" y="675" width="54" height="54" rx="4"/></g><g fill="#111"><path d="M218 393h14v14h-14zm26 0h14v14h-14zm-26 26h14v14h-14zm20-2h5v5h-5zm8 7h11v5h-11z"/><path d="M403 393h14v14h-14zm26 0h14v14h-14zm-26 26h14v14h-14zm20-2h5v5h-5zm8 7h11v5h-11z"/><path d="M588 393h14v14h-14zm26 0h14v14h-14zm-26 26h14v14h-14zm20-2h5v5h-5zm8 7h11v5h-11z"/><path d="M218 683h14v14h-14zm26 0h14v14h-14zm-26 26h14v14h-14zm20-2h5v5h-5zm8 7h11v5h-11z"/><path d="M403 683h14v14h-14zm26 0h14v14h-14zm-26 26h14v14h-14zm20-2h5v5h-5zm8 7h11v5h-11z"/><path d="M588 683h14v14h-14zm26 0h14v14h-14zm-26 26h14v14h-14zm20-2h5v5h-5zm8 7h11v5h-11z"/></g><g stroke="#666c72" stroke-width="14" fill="none" stroke-linecap="round"><path d="M755 255l-20 585M815 255l25 585"/><path d="M746 430h78M742 555h86M738 680h95"/></g><g fill="#5a6066"><rect x="735" y="412" width="100" height="34" rx="6"/><rect x="731" y="537" width="108" height="34" rx="6"/><rect x="727" y="662" width="116" height="34" rx="6"/></g><g fill="#3e4348"><circle cx="185" cy="865" r="42"/><circle cx="650" cy="865" r="42"/><circle cx="790" cy="865" r="42"/></g><g fill="#aeb5bc"><circle cx="185" cy="865" r="21"/><circle cx="650" cy="865" r="21"/><circle cx="790" cy="865" r="21"/></g><g font-family="Arial,sans-serif" text-anchor="middle" fill="#172033"><text x="450" y="955" font-size="25" font-weight="700">3 tótems arriba · 3 tótems abajo</text></g></svg>